<svg xmlns="http://www.w3.org/2000/svg" viewBox="0 0 143.7 143.7">
	<defs>
		<style>
			.cls-1{fill:#ffcf33;}
		</style>
	</defs>
	<title>
		dumore icon
	</title>
	<g id="Layer_2" data-name="Layer 2">
		<g id="Layer_16" data-name="Layer 16">
			<path class="cls-1" d="M74.69,64c-.78-.06-1.56-.09-2.34-.08a29.44,29.44,0,0,0-4,.25h0A5.3,5.3,0,0,0,64,68.87c-.07.82-.1,1.65-.09,2.48a29.44,29.44,0,0,0,.25,4v0A5.32,5.32,0,0,0,69,79.74a23.67,23.67,0,0,0,2.38.09,29.44,29.44,0,0,0,4-.25h0a5.33,5.33,0,0,0,4.37-4.85,23.67,23.67,0,0,0,.09-2.38,29.44,29.44,0,0,0-.25-4A5.36,5.36,0,0,0,74.69,64Z" />
			<path class="cls-1" d="M71.85,0A71.85,71.85,0,1,0,143.7,71.85,71.85,71.85,0,0,0,71.85,0ZM115.6,82.7c-2,4.42-5,5.4-7.12,5.42a5.78,5.78,0,0,1-4.12-1.58,5.27,5.27,0,0,1-1.7-3.86c0-1.94,1.19-3.94,3.64-6.14a24,24,0,0,0,3.88-4.17,6.1,6.1,0,0,0,.93-3.34,7,7,0,0,0-1.06-4,2.39,2.39,0,0,0-2-1.22,3.67,3.67,0,0,0-2.48,1.15c-.75.7-2.46,2.71-6.31,8.33A96.94,96.94,0,0,1,91,84a25.58,25.58,0,0,1-7.61,5.47,21.36,21.36,0,0,1-4,1.45,2.23,2.23,0,0,0-.43.16h0a2.69,2.69,0,0,0-1.24,3.56.7.7,0,0,0,.17.24l.79.69a38.63,38.63,0,0,1,6,6.18,10,10,0,0,1,1.82,5.83A8.65,8.65,0,0,1,82,115.23a19.82,19.82,0,0,1-10.25,2.49A25.74,25.74,0,0,1,61,115.6c-4.44-2-5.4-5-5.43-7.12a5.83,5.83,0,0,1,1.59-4.12A5.21,5.21,0,0,1,61,102.67c1.93,0,3.93,1.19,6.13,3.64a24,24,0,0,0,4.17,3.88,6.22,6.22,0,0,0,3.35.93,7,7,0,0,0,4-1.06,2.37,2.37,0,0,0,1.22-2,3.67,3.67,0,0,0-1.15-2.48c-.7-.76-2.71-2.46-8.33-6.31A95.5,95.5,0,0,1,59.69,91a25.5,25.5,0,0,1-5.47-7.61,21.55,21.55,0,0,1-1.45-4,3,3,0,0,0-.15-.42l0,0a2.62,2.62,0,0,0-.33-.53,2.54,2.54,0,0,0-3.85-.07l-.29.32a38.8,38.8,0,0,1-6.18,6,10,10,0,0,1-5.83,1.81A8.67,8.67,0,0,1,28.47,82,19.81,19.81,0,0,1,26,71.77,25.65,25.65,0,0,1,28.1,61c2-4.44,5-5.4,7.13-5.43a5.84,5.84,0,0,1,4.12,1.6A5.23,5.23,0,0,1,41,61c0,1.93-1.18,3.93-3.63,6.13a24,24,0,0,0-3.88,4.18,6.1,6.1,0,0,0-.93,3.34,7,7,0,0,0,1.06,4,2.37,2.37,0,0,0,2,1.22,3.65,3.65,0,0,0,2.48-1.15c.75-.69,2.45-2.7,6.33-8.32a94.71,94.71,0,0,1,8.19-10.75,25.58,25.58,0,0,1,7.61-5.47,22.08,22.08,0,0,1,4-1.45,3.12,3.12,0,0,0,.43-.15l0,0A2.67,2.67,0,0,0,66,49.06a.74.74,0,0,0-.17-.25L65,48.12a38.63,38.63,0,0,1-6-6.18,10,10,0,0,1-1.82-5.83,8.66,8.66,0,0,1,4.49-7.64A19.79,19.79,0,0,1,71.94,26a25.4,25.4,0,0,1,10.75,2.13c4.42,2,5.4,5,5.42,7.13a5.81,5.81,0,0,1-1.58,4.12A5.27,5.27,0,0,1,82.68,41c-1.94,0-3.94-1.18-6.14-3.63a24,24,0,0,0-4.17-3.88A6.22,6.22,0,0,0,69,32.6a7,7,0,0,0-4,1.06,2.39,2.39,0,0,0-1.22,2,3.69,3.69,0,0,0,1.15,2.48c.7.75,2.71,2.45,8.33,6.31A94.71,94.71,0,0,1,84,52.67a25.58,25.58,0,0,1,5.47,7.61,22.08,22.08,0,0,1,1.45,4,3.12,3.12,0,0,0,.15.43l0,.07a2,2,0,0,0,.18.32,2.54,2.54,0,0,0,4,.26l.29-.33a38.63,38.63,0,0,1,6.18-6,10,10,0,0,1,5.83-1.82,8.65,8.65,0,0,1,7.64,4.49,19.79,19.79,0,0,1,2.49,10.24A25.79,25.79,0,0,1,115.6,82.7Z" />
		</g>
	</g>
</svg>
