<?xml version="1.0" standalone="no"?>
<!DOCTYPE svg PUBLIC "-//W3C//DTD SVG 20010904//EN"
 "http://www.w3.org/TR/2001/REC-SVG-20010904/DTD/svg10.dtd">
<svg version="1.0" xmlns="http://www.w3.org/2000/svg"
 width="700.000000pt" height="700.000000pt" viewBox="0 0 700.000000 700.000000"
 preserveAspectRatio="xMidYMid meet">
<metadata>
Created by potrace 1.14, written by Peter Selinger 2001-2017
</metadata>
<g transform="translate(0.000000,700.000000) scale(0.100000,-0.100000)"
fill="#000000" stroke="none">
<path d="M3295 6993 c-542 -44 -926 -148 -1380 -376 -567 -283 -1071 -749
-1403 -1298 -261 -430 -422 -897 -488 -1414 -22 -172 -26 -605 -6 -765 86
-705 330 -1298 753 -1830 100 -126 319 -352 444 -460 471 -404 1063 -686 1665
-794 229 -41 344 -50 615 -50 331 0 545 24 835 95 901 221 1692 802 2167 1594
262 437 423 918 485 1450 19 167 16 589 -6 760 -89 706 -357 1324 -801 1850
-119 141 -349 366 -490 478 -622 498 -1417 774 -2204 765 -80 -1 -164 -3 -186
-5z m451 -1278 c331 -58 527 -206 542 -407 9 -124 -40 -219 -139 -272 -43 -24
-67 -30 -119 -30 -105 -1 -158 31 -325 198 -169 169 -214 198 -325 204 -103 6
-176 -16 -231 -68 -40 -38 -41 -41 -37 -89 3 -33 14 -62 31 -85 39 -50 161
-145 427 -331 252 -177 414 -302 523 -404 141 -133 267 -335 322 -516 33 -106
62 -135 136 -135 50 0 51 0 127 83 175 187 290 282 387 319 87 33 255 33 338
0 89 -36 178 -125 227 -226 77 -162 100 -269 100 -464 0 -292 -77 -547 -205
-677 -67 -69 -130 -97 -228 -103 -72 -4 -82 -2 -142 27 -78 38 -127 97 -145
172 -29 121 10 200 184 375 187 187 215 232 216 355 0 131 -66 249 -141 249
-100 -1 -153 -58 -454 -490 -364 -521 -567 -706 -888 -811 -51 -16 -102 -40
-114 -51 -27 -26 -45 -82 -36 -117 3 -14 76 -94 164 -180 229 -227 264 -291
264 -481 0 -111 -1 -118 -33 -183 -44 -88 -110 -154 -208 -204 -150 -78 -276
-105 -479 -104 -362 1 -655 122 -745 306 -33 67 -36 208 -5 270 49 100 162
165 264 151 89 -12 145 -50 295 -200 90 -90 162 -152 196 -170 144 -78 378
-21 397 96 14 93 -52 157 -445 433 -228 160 -427 314 -535 415 -138 129 -268
335 -322 513 -30 99 -55 127 -118 134 -60 7 -83 -7 -172 -106 -92 -104 -223
-222 -290 -260 -82 -48 -154 -64 -265 -59 -85 3 -105 8 -164 37 -126 62 -214
184 -272 376 -24 79 -27 112 -31 265 -6 194 6 293 53 441 54 174 142 298 248
349 66 32 179 39 240 16 70 -27 118 -68 151 -127 24 -44 29 -66 29 -119 0
-101 -40 -166 -194 -320 -184 -182 -210 -227 -210 -356 0 -94 28 -171 77 -215
32 -27 41 -31 80 -26 94 10 150 75 497 574 112 160 278 367 360 447 128 124
320 237 485 286 82 24 115 50 129 102 17 61 5 83 -87 164 -47 42 -119 113
-160 158 -148 163 -187 252 -179 418 3 78 9 104 35 160 67 143 221 242 454
293 90 19 353 19 465 0z"/>
<path d="M3395 3880 c-44 -4 -99 -15 -123 -25 -52 -21 -124 -100 -140 -151
-19 -68 -24 -175 -13 -292 15 -162 56 -229 169 -280 54 -24 345 -24 417 1 69
23 119 67 151 133 23 47 27 71 31 167 6 131 -7 248 -33 303 -26 55 -88 110
-142 128 -58 19 -210 27 -317 16z"/>
</g>
</svg>
